# xmcd CD database file
#
# Track frame offsets:
#	150
#	37120
#	99707
#	124427
#
# Disc length: 2626 seconds
#
# Revision: 0
# Processed by: cddbd v1.5.1PL2 Copyright (c) Steve Scherf et al.
# Submitted via: CDex 1.50
#
DISCID=370a4004
DTITLE=McCoy Tyner - Key of Soul
DYEAR=1992
DGENRE=Jazz
TTITLE0=I Wanna Stand Over There
TTITLE1=Suddenly
TTITLE2=I Should Care
TTITLE3=Miss Bea
EXTD=YEAR: 1992
EXTT0=
EXTT1=
EXTT2=
EXTT3=
PLAYORDER=
